# MagicaVoxel @ Ephtracy

# group
o 

# material
mtllib Perry.mtl
usemtl palette

# normals
vn -1 0 0
vn 1 0 0
vn 0 0 1
vn 0 0 -1
vn 0 -1 0
vn 0 1 0

# texcoords
vt 0.0683594 0.5
vt 0.537109 0.5
vt 0.810547 0.5
vt 0.958984 0.5

# verts
v -0.4 0 0.3
v -0.4 0 -0.3
v -0.4 0.1 0.3
v -0.4 0.1 -0.3
v -0.4 0.4 0.1
v -0.4 0.4 0
v -0.4 0.5 0.2
v -0.4 0.5 0.1
v -0.4 0.5 0
v -0.4 0.5 -0.1
v -0.4 0.6 0.2
v -0.4 0.6 0.1
v -0.4 0.9 0.2
v -0.4 0.9 0.1
v -0.4 0.9 -0.1
v -0.4 1.2 0.2
v -0.4 1.2 -0.1
v -0.4 1.3 0.2
v -0.4 1.3 -0.1
v -0.3 0 0.4
v -0.3 0 0.3
v -0.3 0 -0.3
v -0.3 0 -0.4
v -0.3 0.1 0.4
v -0.3 0.1 0.3
v -0.3 0.1 0.1
v -0.3 0.1 -0.1
v -0.3 0.1 -0.3
v -0.3 0.1 -0.4
v -0.3 0.2 0
v -0.3 0.2 -0.1
v -0.3 0.3 0.2
v -0.3 0.3 0.1
v -0.3 0.3 0
v -0.3 0.3 -0.1
v -0.3 0.4 0.1
v -0.3 0.4 0
v -0.3 0.5 0.2
v -0.3 0.5 0.1
v -0.3 0.5 0
v -0.3 0.5 -0.1
v -0.3 0.9 0.2
v -0.3 0.9 0.1
v -0.3 0.9 -0.1
v -0.3 1.2 0.3
v -0.3 1.2 0.2
v -0.3 1.2 -0.1
v -0.3 1.2 -0.2
v -0.3 1.3 0.3
v -0.3 1.3 0.2
v -0.3 1.3 -0.1
v -0.3 1.3 -0.2
v -0.2 0.9 0.3
v -0.2 0.9 0.2
v -0.2 0.9 -0.1
v -0.2 0.9 -0.2
v -0.2 1.1 -0.1
v -0.2 1.1 -0.2
v -0.2 1.2 0.4
v -0.2 1.2 0.3
v -0.2 1.2 0.2
v -0.2 1.2 -0.1
v -0.2 1.2 -0.2
v -0.2 1.3 0.4
v -0.2 1.3 0.3
v -0.1 0.2 0.3
v -0.1 0.2 0.2
v -0.1 0.3 0.2
v -0.1 0.5 0.3
v -0.1 0.5 0.2
v -0.1 1 -0.2
v -0.1 1 -0.3
v -0.1 1.1 -0.2
v -0.1 1.1 -0.3
v -0.1 1.2 -0.2
v -0.1 1.2 -0.3
v -0.1 1.3 -0.2
v -0.1 1.3 -0.3
v 0.1 0.1 0.1
v 0.1 0.1 -0.1
v 0.1 0.2 0
v 0.1 0.2 -0.1
v 0.1 0.3 0.1
v 0.1 0.3 0
v -0.1 0.1 0.1
v -0.1 0.1 -0.1
v -0.1 0.2 0
v -0.1 0.2 -0.1
v -0.1 0.3 0.1
v -0.1 0.3 0
v 0.1 0.2 0.3
v 0.1 0.2 0.2
v 0.1 0.3 0.2
v 0.1 0.5 0.3
v 0.1 0.5 0.2
v 0.1 1 -0.2
v 0.1 1 -0.3
v 0.1 1.1 -0.2
v 0.1 1.1 -0.3
v 0.1 1.2 -0.2
v 0.1 1.2 -0.3
v 0.1 1.3 -0.2
v 0.1 1.3 -0.3
v 0.2 0.9 0.3
v 0.2 0.9 0.2
v 0.2 0.9 -0.1
v 0.2 0.9 -0.2
v 0.2 1.1 -0.1
v 0.2 1.1 -0.2
v 0.2 1.2 0.4
v 0.2 1.2 0.3
v 0.2 1.2 0.2
v 0.2 1.2 -0.1
v 0.2 1.2 -0.2
v 0.2 1.3 0.4
v 0.2 1.3 0.3
v 0.3 0 0.4
v 0.3 0 0.3
v 0.3 0 -0.3
v 0.3 0 -0.4
v 0.3 0.1 0.4
v 0.3 0.1 0.3
v 0.3 0.1 0.1
v 0.3 0.1 -0.1
v 0.3 0.1 -0.3
v 0.3 0.1 -0.4
v 0.3 0.2 0
v 0.3 0.2 -0.1
v 0.3 0.3 0.2
v 0.3 0.3 0.1
v 0.3 0.3 0
v 0.3 0.3 -0.1
v 0.3 0.4 0.1
v 0.3 0.4 0
v 0.3 0.5 0.2
v 0.3 0.5 0.1
v 0.3 0.5 0
v 0.3 0.5 -0.1
v 0.3 0.9 0.2
v 0.3 0.9 0.1
v 0.3 0.9 -0.1
v 0.3 1.2 0.3
v 0.3 1.2 0.2
v 0.3 1.2 -0.1
v 0.3 1.2 -0.2
v 0.3 1.3 0.3
v 0.3 1.3 0.2
v 0.3 1.3 -0.1
v 0.3 1.3 -0.2
v 0.4 0 0.3
v 0.4 0 -0.3
v 0.4 0.1 0.3
v 0.4 0.1 -0.3
v 0.4 0.4 0.1
v 0.4 0.4 0
v 0.4 0.5 0.2
v 0.4 0.5 0.1
v 0.4 0.5 0
v 0.4 0.5 -0.1
v 0.4 0.6 0.2
v 0.4 0.6 0.1
v 0.4 0.9 0.2
v 0.4 0.9 0.1
v 0.4 0.9 -0.1
v 0.4 1.2 0.2
v 0.4 1.2 -0.1
v 0.4 1.3 0.2
v 0.4 1.3 -0.1
v -0.3 0 0.4
v -0.3 0.1 0.4
v -0.2 1.2 0.4
v -0.2 1.3 0.4
v 0.2 1.2 0.4
v 0.2 1.3 0.4
v 0.3 0 0.4
v 0.3 0.1 0.4
v -0.4 0 0.3
v -0.4 0.1 0.3
v -0.3 0 0.3
v -0.3 0.1 0.3
v -0.3 1.2 0.3
v -0.3 1.3 0.3
v -0.2 0.9 0.3
v -0.2 1.2 0.3
v -0.2 1.3 0.3
v -0.1 0.2 0.3
v -0.1 0.5 0.3
v 0.1 0.2 0.3
v 0.1 0.5 0.3
v 0.2 0.9 0.3
v 0.2 1.2 0.3
v 0.2 1.3 0.3
v 0.3 0 0.3
v 0.3 0.1 0.3
v 0.3 1.2 0.3
v 0.3 1.3 0.3
v 0.4 0 0.3
v 0.4 0.1 0.3
v -0.4 0.5 0.2
v -0.4 0.6 0.2
v -0.4 0.9 0.2
v -0.4 1.2 0.2
v -0.4 1.3 0.2
v -0.3 0.3 0.2
v -0.3 0.5 0.2
v -0.3 0.6 0.2
v -0.3 0.9 0.2
v -0.3 1.2 0.2
v -0.3 1.3 0.2
v -0.2 0.9 0.2
v -0.2 1.2 0.2
v -0.1 0.3 0.2
v -0.1 0.5 0.2
v -0.1 0.8 0.2
v 0.1 0.3 0.2
v 0.1 0.5 0.2
v 0.1 0.8 0.2
v 0.2 0.9 0.2
v 0.2 1.2 0.2
v 0.3 0.3 0.2
v 0.3 0.5 0.2
v 0.3 0.6 0.2
v 0.3 0.9 0.2
v 0.3 1.2 0.2
v 0.3 1.3 0.2
v 0.4 0.5 0.2
v 0.4 0.6 0.2
v 0.4 0.9 0.2
v 0.4 1.2 0.2
v 0.4 1.3 0.2
v -0.4 0.4 0.1
v -0.4 0.5 0.1
v -0.3 0.1 0.1
v -0.3 0.3 0.1
v -0.3 0.4 0.1
v -0.3 0.5 0.1
v -0.1 0.1 0.1
v -0.1 0.3 0.1
v 0.1 0.1 0.1
v 0.1 0.3 0.1
v 0.3 0.1 0.1
v 0.3 0.3 0.1
v 0.3 0.4 0.1
v 0.3 0.5 0.1
v 0.4 0.4 0.1
v 0.4 0.5 0.1
v -0.1 0.2 0.2
v -0.1 0.3 0.2
v 0.1 0.2 0.2
v 0.1 0.3 0.2
v -0.4 0.4 0
v -0.4 0.5 0
v -0.3 0.2 0
v -0.3 0.3 0
v -0.3 0.4 0
v -0.3 0.5 0
v -0.1 0.2 0
v -0.1 0.3 0
v 0.1 0.2 0
v 0.1 0.3 0
v 0.3 0.2 0
v 0.3 0.3 0
v 0.3 0.4 0
v 0.3 0.5 0
v 0.4 0.4 0
v 0.4 0.5 0
v -0.4 0.5 -0.1
v -0.4 0.9 -0.1
v -0.4 1.2 -0.1
v -0.4 1.3 -0.1
v -0.3 0.1 -0.1
v -0.3 0.2 -0.1
v -0.3 0.3 -0.1
v -0.3 0.5 -0.1
v -0.3 0.9 -0.1
v -0.3 1.2 -0.1
v -0.3 1.3 -0.1
v -0.2 0.5 -0.1
v -0.2 0.8 -0.1
v -0.2 0.9 -0.1
v -0.2 1.1 -0.1
v -0.2 1.2 -0.1
v -0.1 0.1 -0.1
v -0.1 0.2 -0.1
v -0.1 0.4 -0.1
v -0.1 0.5 -0.1
v 0.1 0.1 -0.1
v 0.1 0.2 -0.1
v 0.1 0.4 -0.1
v 0.1 0.5 -0.1
v 0.2 0.5 -0.1
v 0.2 0.8 -0.1
v 0.2 0.9 -0.1
v 0.2 1.1 -0.1
v 0.2 1.2 -0.1
v 0.3 0.1 -0.1
v 0.3 0.2 -0.1
v 0.3 0.3 -0.1
v 0.3 0.5 -0.1
v 0.3 0.9 -0.1
v 0.3 1.2 -0.1
v 0.3 1.3 -0.1
v 0.4 0.5 -0.1
v 0.4 0.9 -0.1
v 0.4 1.2 -0.1
v 0.4 1.3 -0.1
v -0.3 1.2 -0.2
v -0.3 1.3 -0.2
v -0.2 0.9 -0.2
v -0.2 1.1 -0.2
v -0.2 1.2 -0.2
v -0.1 1 -0.2
v -0.1 1.1 -0.2
v -0.1 1.2 -0.2
v -0.1 1.3 -0.2
v 0.1 1 -0.2
v 0.1 1.1 -0.2
v 0.1 1.2 -0.2
v 0.1 1.3 -0.2
v 0.2 0.9 -0.2
v 0.2 1.1 -0.2
v 0.2 1.2 -0.2
v 0.3 1.2 -0.2
v 0.3 1.3 -0.2
v -0.4 0 -0.3
v -0.4 0.1 -0.3
v -0.3 0 -0.3
v -0.3 0.1 -0.3
v -0.1 1 -0.3
v -0.1 1.1 -0.3
v -0.1 1.2 -0.3
v -0.1 1.3 -0.3
v 0.1 1 -0.3
v 0.1 1.1 -0.3
v 0.1 1.2 -0.3
v 0.1 1.3 -0.3
v 0.3 0 -0.3
v 0.3 0.1 -0.3
v 0.4 0 -0.3
v 0.4 0.1 -0.3
v -0.3 0 -0.4
v -0.3 0.1 -0.4
v 0.3 0 -0.4
v 0.3 0.1 -0.4
v -0.3 0 0.4
v 0.3 0 0.4
v -0.4 0 0.3
v -0.3 0 0.3
v 0.3 0 0.3
v 0.4 0 0.3
v -0.4 0 -0.3
v -0.3 0 -0.3
v 0.3 0 -0.3
v 0.4 0 -0.3
v -0.3 0 -0.4
v 0.3 0 -0.4
v -0.1 0.2 0.3
v 0.1 0.2 0.3
v -0.1 0.2 0.2
v 0.1 0.2 0.2
v -0.3 0.3 0.2
v -0.1 0.3 0.2
v 0.1 0.3 0.2
v 0.3 0.3 0.2
v -0.3 0.3 0.1
v -0.1 0.3 0.1
v 0.1 0.3 0.1
v 0.3 0.3 0.1
v -0.3 0.3 0
v -0.1 0.3 0
v 0.1 0.3 0
v 0.3 0.3 0
v -0.3 0.3 -0.1
v 0.3 0.3 -0.1
v -0.4 0.4 0.1
v -0.3 0.4 0.1
v 0.3 0.4 0.1
v 0.4 0.4 0.1
v -0.4 0.4 0
v -0.3 0.4 0
v 0.3 0.4 0
v 0.4 0.4 0
v -0.4 0.5 0.2
v -0.3 0.5 0.2
v 0.3 0.5 0.2
v 0.4 0.5 0.2
v -0.4 0.5 0.1
v -0.3 0.5 0.1
v 0.3 0.5 0.1
v 0.4 0.5 0.1
v -0.4 0.5 0
v -0.3 0.5 0
v 0.3 0.5 0
v 0.4 0.5 0
v -0.4 0.5 -0.1
v -0.3 0.5 -0.1
v 0.3 0.5 -0.1
v 0.4 0.5 -0.1
v -0.2 0.9 0.3
v 0.2 0.9 0.3
v -0.2 0.9 0.2
v 0.2 0.9 0.2
v -0.2 0.9 -0.1
v 0.2 0.9 -0.1
v -0.2 0.9 -0.2
v 0.2 0.9 -0.2
v -0.1 1 -0.2
v 0.1 1 -0.2
v -0.1 1 -0.3
v 0.1 1 -0.3
v -0.2 1.2 0.4
v 0.2 1.2 0.4
v -0.3 1.2 0.3
v -0.2 1.2 0.3
v 0.2 1.2 0.3
v 0.3 1.2 0.3
v -0.4 1.2 0.2
v -0.3 1.2 0.2
v -0.2 1.2 0.2
v 0.2 1.2 0.2
v 0.3 1.2 0.2
v 0.4 1.2 0.2
v -0.4 1.2 -0.1
v -0.3 1.2 -0.1
v -0.2 1.2 -0.1
v 0.2 1.2 -0.1
v 0.3 1.2 -0.1
v 0.4 1.2 -0.1
v -0.3 1.2 -0.2
v -0.2 1.2 -0.2
v -0.1 1.2 -0.2
v 0.1 1.2 -0.2
v 0.2 1.2 -0.2
v 0.3 1.2 -0.2
v -0.1 1.2 -0.3
v 0.1 1.2 -0.3
v -0.3 0.1 0.4
v 0.3 0.1 0.4
v -0.4 0.1 0.3
v -0.3 0.1 0.3
v 0.3 0.1 0.3
v 0.4 0.1 0.3
v -0.3 0.1 0.1
v -0.1 0.1 0.1
v 0.1 0.1 0.1
v 0.3 0.1 0.1
v -0.3 0.1 -0.1
v -0.1 0.1 -0.1
v 0.1 0.1 -0.1
v 0.3 0.1 -0.1
v -0.4 0.1 -0.3
v -0.3 0.1 -0.3
v 0.3 0.1 -0.3
v 0.4 0.1 -0.3
v -0.3 0.1 -0.4
v 0.3 0.1 -0.4
v -0.3 0.2 0
v -0.1 0.2 0
v 0.1 0.2 0
v 0.3 0.2 0
v -0.3 0.2 -0.1
v -0.1 0.2 -0.1
v 0.1 0.2 -0.1
v 0.3 0.2 -0.1
v -0.1 0.5 0.3
v 0.1 0.5 0.3
v -0.1 0.5 0.2
v 0.1 0.5 0.2
v -0.4 0.9 0.2
v -0.3 0.9 0.2
v 0.3 0.9 0.2
v 0.4 0.9 0.2
v -0.4 0.9 0.1
v -0.3 0.9 0.1
v 0.3 0.9 0.1
v 0.4 0.9 0.1
v -0.4 0.9 -0.1
v -0.3 0.9 -0.1
v 0.3 0.9 -0.1
v 0.4 0.9 -0.1
v -0.1 1.1 -0.2
v 0.1 1.1 -0.2
v -0.1 1.1 -0.3
v 0.1 1.1 -0.3
v -0.2 1.3 0.4
v 0.2 1.3 0.4
v -0.3 1.3 0.3
v -0.2 1.3 0.3
v 0.2 1.3 0.3
v 0.3 1.3 0.3
v -0.4 1.3 0.2
v -0.3 1.3 0.2
v 0.3 1.3 0.2
v 0.4 1.3 0.2
v -0.4 1.3 -0.1
v -0.3 1.3 -0.1
v 0.3 1.3 -0.1
v 0.4 1.3 -0.1
v -0.3 1.3 -0.2
v -0.1 1.3 -0.2
v 0.1 1.3 -0.2
v 0.3 1.3 -0.2
v -0.1 1.3 -0.3
v 0.1 1.3 -0.3

# faces
f 3/4/1 2/4/1 1/4/1
f 4/4/1 2/4/1 3/4/1
f 8/3/1 6/3/1 5/3/1
f 9/3/1 6/3/1 8/3/1
f 11/3/1 8/3/1 7/3/1
f 11/3/1 10/3/1 9/3/1
f 11/3/1 9/3/1 8/3/1
f 12/3/1 10/3/1 11/3/1
f 13/4/1 12/4/1 11/4/1
f 14/3/1 10/3/1 12/3/1
f 14/4/1 12/4/1 13/4/1
f 15/3/1 10/3/1 14/3/1
f 18/2/1 17/2/1 16/2/1
f 19/2/1 17/2/1 18/2/1
f 24/4/1 21/4/1 20/4/1
f 25/4/1 21/4/1 24/4/1
f 28/4/1 23/4/1 22/4/1
f 29/4/1 23/4/1 28/4/1
f 30/3/1 27/3/1 26/3/1
f 31/3/1 27/3/1 30/3/1
f 33/3/1 30/3/1 26/3/1
f 34/3/1 30/3/1 33/3/1
f 36/3/1 33/3/1 32/3/1
f 36/3/1 35/3/1 34/3/1
f 36/3/1 34/3/1 33/3/1
f 37/3/1 35/3/1 36/3/1
f 38/3/1 36/3/1 32/3/1
f 39/3/1 36/3/1 38/3/1
f 40/3/1 35/3/1 37/3/1
f 41/3/1 35/3/1 40/3/1
f 46/3/1 43/3/1 42/3/1
f 46/3/1 44/3/1 43/3/1
f 47/3/1 44/3/1 46/3/1
f 49/2/1 46/2/1 45/2/1
f 50/2/1 46/2/1 49/2/1
f 51/2/1 48/2/1 47/2/1
f 52/2/1 48/2/1 51/2/1
f 57/3/1 56/3/1 55/3/1
f 58/3/1 56/3/1 57/3/1
f 60/3/1 54/3/1 53/3/1
f 61/3/1 54/3/1 60/3/1
f 62/4/1 58/4/1 57/4/1
f 63/4/1 58/4/1 62/4/1
f 64/2/1 60/2/1 59/2/1
f 65/2/1 60/2/1 64/2/1
f 68/1/1 67/1/1 66/1/1
f 69/1/1 68/1/1 66/1/1
f 70/1/1 68/1/1 69/1/1
f 73/1/1 72/1/1 71/1/1
f 74/1/1 72/1/1 73/1/1
f 77/2/1 76/2/1 75/2/1
f 78/2/1 76/2/1 77/2/1
f 81/3/1 80/3/1 79/3/1
f 82/3/1 80/3/1 81/3/1
f 83/3/1 81/3/1 79/3/1
f 84/3/1 81/3/1 83/3/1
f 85/3/2 86/3/2 87/3/2
f 87/3/2 86/3/2 88/3/2
f 85/3/2 87/3/2 89/3/2
f 89/3/2 87/3/2 90/3/2
f 91/1/2 92/1/2 93/1/2
f 91/1/2 93/1/2 94/1/2
f 94/1/2 93/1/2 95/1/2
f 96/1/2 97/1/2 98/1/2
f 98/1/2 97/1/2 99/1/2
f 100/2/2 101/2/2 102/2/2
f 102/2/2 101/2/2 103/2/2
f 106/3/2 107/3/2 108/3/2
f 108/3/2 107/3/2 109/3/2
f 104/3/2 105/3/2 111/3/2
f 111/3/2 105/3/2 112/3/2
f 108/4/2 109/4/2 113/4/2
f 113/4/2 109/4/2 114/4/2
f 110/2/2 111/2/2 115/2/2
f 115/2/2 111/2/2 116/2/2
f 117/4/2 118/4/2 121/4/2
f 121/4/2 118/4/2 122/4/2
f 119/4/2 120/4/2 125/4/2
f 125/4/2 120/4/2 126/4/2
f 123/3/2 124/3/2 127/3/2
f 127/3/2 124/3/2 128/3/2
f 123/3/2 127/3/2 130/3/2
f 130/3/2 127/3/2 131/3/2
f 129/3/2 130/3/2 133/3/2
f 131/3/2 132/3/2 133/3/2
f 130/3/2 131/3/2 133/3/2
f 133/3/2 132/3/2 134/3/2
f 129/3/2 133/3/2 135/3/2
f 135/3/2 133/3/2 136/3/2
f 134/3/2 132/3/2 137/3/2
f 137/3/2 132/3/2 138/3/2
f 139/3/2 140/3/2 143/3/2
f 140/3/2 141/3/2 143/3/2
f 143/3/2 141/3/2 144/3/2
f 142/2/2 143/2/2 146/2/2
f 146/2/2 143/2/2 147/2/2
f 144/2/2 145/2/2 148/2/2
f 148/2/2 145/2/2 149/2/2
f 150/4/2 151/4/2 152/4/2
f 152/4/2 151/4/2 153/4/2
f 154/3/2 155/3/2 157/3/2
f 157/3/2 155/3/2 158/3/2
f 156/3/2 157/3/2 160/3/2
f 158/3/2 159/3/2 160/3/2
f 157/3/2 158/3/2 160/3/2
f 160/3/2 159/3/2 161/3/2
f 160/4/2 161/4/2 162/4/2
f 161/3/2 159/3/2 163/3/2
f 162/4/2 161/4/2 163/4/2
f 163/3/2 159/3/2 164/3/2
f 165/2/2 166/2/2 167/2/2
f 167/2/2 166/2/2 168/2/2
f 173/2/3 172/2/3 171/2/3
f 174/2/3 172/2/3 173/2/3
f 175/4/3 170/4/3 169/4/3
f 176/4/3 170/4/3 175/4/3
f 179/4/3 178/4/3 177/4/3
f 180/4/3 178/4/3 179/4/3
f 184/2/3 182/2/3 181/2/3
f 185/2/3 182/2/3 184/2/3
f 188/1/3 187/1/3 186/1/3
f 189/1/3 187/1/3 188/1/3
f 190/3/3 184/3/3 183/3/3
f 191/3/3 184/3/3 190/3/3
f 195/2/3 192/2/3 191/2/3
f 196/2/3 192/2/3 195/2/3
f 197/4/3 194/4/3 193/4/3
f 198/4/3 194/4/3 197/4/3
f 205/3/3 200/3/3 199/3/3
f 206/4/3 201/4/3 200/4/3
f 206/3/3 200/3/3 205/3/3
f 207/4/3 201/4/3 206/4/3
f 208/2/3 203/2/3 202/2/3
f 209/2/3 203/2/3 208/2/3
f 210/3/3 207/3/3 206/3/3
f 210/3/3 205/3/3 204/3/3
f 210/3/3 208/3/3 207/3/3
f 210/3/3 206/3/3 205/3/3
f 211/3/3 208/3/3 210/3/3
f 212/3/3 210/3/3 204/3/3
f 213/3/3 210/3/3 212/3/3
f 214/3/3 210/3/3 213/3/3
f 216/1/3 214/1/3 213/1/3
f 217/3/3 210/3/3 214/3/3
f 217/1/3 214/1/3 216/1/3
f 218/3/3 216/3/3 215/3/3
f 218/3/3 210/3/3 217/3/3
f 218/3/3 217/3/3 216/3/3
f 220/3/3 218/3/3 215/3/3
f 220/3/3 219/3/3 218/3/3
f 221/3/3 219/3/3 220/3/3
f 222/3/3 219/3/3 221/3/3
f 223/3/3 219/3/3 222/3/3
f 224/3/3 219/3/3 223/3/3
f 226/3/3 222/3/3 221/3/3
f 227/4/3 223/4/3 222/4/3
f 227/3/3 222/3/3 226/3/3
f 228/4/3 223/4/3 227/4/3
f 229/2/3 225/2/3 224/2/3
f 230/2/3 225/2/3 229/2/3
f 235/3/3 232/3/3 231/3/3
f 236/3/3 232/3/3 235/3/3
f 237/3/3 234/3/3 233/3/3
f 238/3/3 234/3/3 237/3/3
f 241/3/3 240/3/3 239/3/3
f 242/3/3 240/3/3 241/3/3
f 245/3/3 244/3/3 243/3/3
f 246/3/3 244/3/3 245/3/3
f 247/1/4 248/1/4 249/1/4
f 249/1/4 248/1/4 250/1/4
f 251/3/4 252/3/4 255/3/4
f 255/3/4 252/3/4 256/3/4
f 253/3/4 254/3/4 257/3/4
f 257/3/4 254/3/4 258/3/4
f 259/3/4 260/3/4 261/3/4
f 261/3/4 260/3/4 262/3/4
f 263/3/4 264/3/4 265/3/4
f 265/3/4 264/3/4 266/3/4
f 267/3/4 268/3/4 274/3/4
f 274/3/4 268/3/4 275/3/4
f 269/2/4 270/2/4 276/2/4
f 276/2/4 270/2/4 277/2/4
f 274/3/4 275/3/4 278/3/4
f 273/3/4 274/3/4 278/3/4
f 275/3/4 276/3/4 278/3/4
f 278/3/4 276/3/4 279/3/4
f 279/3/4 276/3/4 280/3/4
f 280/3/4 276/3/4 281/3/4
f 281/3/4 276/3/4 282/3/4
f 271/3/4 272/3/4 283/3/4
f 283/3/4 272/3/4 284/3/4
f 273/3/4 278/3/4 285/3/4
f 278/4/4 279/4/4 286/4/4
f 285/3/4 278/3/4 286/3/4
f 273/3/4 285/3/4 289/3/4
f 285/4/4 286/4/4 289/4/4
f 286/4/4 279/4/4 290/4/4
f 289/4/4 286/4/4 290/4/4
f 289/3/4 290/3/4 291/3/4
f 290/4/4 279/4/4 291/4/4
f 279/3/4 280/3/4 292/3/4
f 291/4/4 279/4/4 292/4/4
f 292/3/4 280/3/4 293/3/4
f 287/3/4 288/3/4 296/3/4
f 296/3/4 288/3/4 297/3/4
f 273/3/4 289/3/4 298/3/4
f 294/3/4 295/3/4 298/3/4
f 289/3/4 291/3/4 298/3/4
f 293/3/4 294/3/4 298/3/4
f 292/3/4 293/3/4 298/3/4
f 291/3/4 292/3/4 298/3/4
f 298/3/4 295/3/4 299/3/4
f 299/3/4 295/3/4 300/3/4
f 300/3/4 295/3/4 301/3/4
f 299/3/4 300/3/4 303/3/4
f 303/3/4 300/3/4 304/3/4
f 301/2/4 302/2/4 305/2/4
f 305/2/4 302/2/4 306/2/4
f 307/2/4 308/2/4 311/2/4
f 309/3/4 310/3/4 312/3/4
f 310/4/4 311/4/4 313/4/4
f 312/3/4 310/3/4 313/3/4
f 311/2/4 308/2/4 314/2/4
f 313/4/4 311/4/4 314/4/4
f 314/2/4 308/2/4 315/2/4
f 309/3/4 312/3/4 316/3/4
f 313/3/4 314/3/4 317/3/4
f 317/3/4 314/3/4 318/3/4
f 309/3/4 316/3/4 320/3/4
f 316/3/4 317/3/4 320/3/4
f 317/4/4 318/4/4 321/4/4
f 320/3/4 317/3/4 321/3/4
f 318/2/4 319/2/4 322/2/4
f 321/4/4 318/4/4 322/4/4
f 322/2/4 319/2/4 323/2/4
f 323/2/4 319/2/4 324/2/4
f 325/4/4 326/4/4 327/4/4
f 327/4/4 326/4/4 328/4/4
f 329/1/4 330/1/4 333/1/4
f 333/1/4 330/1/4 334/1/4
f 331/2/4 332/2/4 335/2/4
f 335/2/4 332/2/4 336/2/4
f 337/4/4 338/4/4 339/4/4
f 339/4/4 338/4/4 340/4/4
f 341/4/4 342/4/4 343/4/4
f 343/4/4 342/4/4 344/4/4
f 348/4/5 346/4/5 345/4/5
f 349/4/5 346/4/5 348/4/5
f 351/4/5 348/4/5 347/4/5
f 351/4/5 350/4/5 349/4/5
f 351/4/5 349/4/5 348/4/5
f 352/4/5 350/4/5 351/4/5
f 353/4/5 350/4/5 352/4/5
f 354/4/5 350/4/5 353/4/5
f 355/4/5 353/4/5 352/4/5
f 356/4/5 353/4/5 355/4/5
f 359/1/5 358/1/5 357/1/5
f 360/1/5 358/1/5 359/1/5
f 365/3/5 362/3/5 361/3/5
f 365/3/5 364/3/5 363/3/5
f 365/3/5 363/3/5 362/3/5
f 366/3/5 364/3/5 365/3/5
f 367/3/5 364/3/5 366/3/5
f 368/3/5 364/3/5 367/3/5
f 370/3/5 367/3/5 366/3/5
f 371/3/5 367/3/5 370/3/5
f 373/3/5 370/3/5 369/3/5
f 373/3/5 372/3/5 371/3/5
f 373/3/5 371/3/5 370/3/5
f 374/3/5 372/3/5 373/3/5
f 379/3/5 376/3/5 375/3/5
f 380/3/5 376/3/5 379/3/5
f 381/3/5 378/3/5 377/3/5
f 382/3/5 378/3/5 381/3/5
f 387/3/5 384/3/5 383/3/5
f 388/3/5 384/3/5 387/3/5
f 389/3/5 386/3/5 385/3/5
f 390/3/5 386/3/5 389/3/5
f 395/3/5 392/3/5 391/3/5
f 396/3/5 392/3/5 395/3/5
f 397/3/5 394/3/5 393/3/5
f 398/3/5 394/3/5 397/3/5
f 401/3/5 400/3/5 399/3/5
f 402/3/5 400/3/5 401/3/5
f 405/3/5 404/3/5 403/3/5
f 406/3/5 404/3/5 405/3/5
f 409/1/5 408/1/5 407/1/5
f 410/1/5 408/1/5 409/1/5
f 414/2/5 412/2/5 411/2/5
f 415/2/5 412/2/5 414/2/5
f 418/2/5 414/2/5 413/2/5
f 419/2/5 414/2/5 418/2/5
f 420/2/5 416/2/5 415/2/5
f 421/2/5 416/2/5 420/2/5
f 423/2/5 418/2/5 417/2/5
f 424/2/5 418/2/5 423/2/5
f 427/2/5 422/2/5 421/2/5
f 428/2/5 422/2/5 427/2/5
f 429/2/5 425/2/5 424/2/5
f 430/2/5 425/2/5 429/2/5
f 433/2/5 427/2/5 426/2/5
f 434/2/5 427/2/5 433/2/5
f 435/2/5 432/2/5 431/2/5
f 436/2/5 432/2/5 435/2/5
f 437/4/6 438/4/6 440/4/6
f 440/4/6 438/4/6 441/4/6
f 439/4/6 440/4/6 443/4/6
f 441/4/6 442/4/6 443/4/6
f 440/4/6 441/4/6 443/4/6
f 443/4/6 442/4/6 444/4/6
f 444/4/6 442/4/6 445/4/6
f 445/4/6 442/4/6 446/4/6
f 439/4/6 443/4/6 447/4/6
f 444/4/6 445/4/6 448/4/6
f 448/4/6 445/4/6 449/4/6
f 446/4/6 442/4/6 450/4/6
f 448/4/6 449/4/6 451/4/6
f 449/4/6 450/4/6 451/4/6
f 439/4/6 447/4/6 451/4/6
f 447/4/6 448/4/6 451/4/6
f 451/4/6 450/4/6 452/4/6
f 450/4/6 442/4/6 453/4/6
f 452/4/6 450/4/6 453/4/6
f 453/4/6 442/4/6 454/4/6
f 452/4/6 453/4/6 455/4/6
f 455/4/6 453/4/6 456/4/6
f 457/3/6 458/3/6 461/3/6
f 461/3/6 458/3/6 462/3/6
f 459/3/6 460/3/6 463/3/6
f 463/3/6 460/3/6 464/3/6
f 465/1/6 466/1/6 467/1/6
f 467/1/6 466/1/6 468/1/6
f 469/4/6 470/4/6 473/4/6
f 473/4/6 470/4/6 474/4/6
f 471/4/6 472/4/6 475/4/6
f 475/4/6 472/4/6 476/4/6
f 473/3/6 474/3/6 477/3/6
f 477/3/6 474/3/6 478/3/6
f 475/3/6 476/3/6 479/3/6
f 479/3/6 476/3/6 480/3/6
f 481/1/6 482/1/6 483/1/6
f 483/1/6 482/1/6 484/1/6
f 485/2/6 486/2/6 488/2/6
f 488/2/6 486/2/6 489/2/6
f 487/2/6 488/2/6 492/2/6
f 489/2/6 490/2/6 492/2/6
f 488/2/6 489/2/6 492/2/6
f 492/2/6 490/2/6 493/2/6
f 491/2/6 492/2/6 495/2/6
f 493/2/6 494/2/6 495/2/6
f 492/2/6 493/2/6 495/2/6
f 495/2/6 494/2/6 496/2/6
f 496/2/6 494/2/6 497/2/6
f 497/2/6 494/2/6 498/2/6
f 496/2/6 497/2/6 499/2/6
f 499/2/6 497/2/6 500/2/6
f 500/2/6 497/2/6 501/2/6
f 501/2/6 497/2/6 502/2/6
f 500/2/6 501/2/6 503/2/6
f 503/2/6 501/2/6 504/2/6
