# MagicaVoxel @ Ephtracy

# group
o 

# material
mtllib Pengiun.mtl
usemtl palette

# normals
vn -1 0 0
vn 1 0 0
vn 0 0 1
vn 0 0 -1
vn 0 -1 0
vn 0 1 0

# texcoords
vt 0.0683594 0.5
vt 0.958984 0.5
vt 0.982422 0.5
vt 0.990234 0.5

# verts
v -0.4 0 0.3
v -0.4 0 -0.3
v -0.4 0.1 0.3
v -0.4 0.1 -0.3
v -0.4 0.4 0.1
v -0.4 0.4 0
v -0.4 0.5 0.2
v -0.4 0.5 0.1
v -0.4 0.5 0
v -0.4 0.5 -0.1
v -0.4 0.6 0.2
v -0.4 0.6 0.1
v -0.4 0.9 0.2
v -0.4 0.9 0.1
v -0.4 0.9 -0.1
v -0.3 0 0.4
v -0.3 0 0.3
v -0.3 0 -0.3
v -0.3 0 -0.4
v -0.3 0.1 0.4
v -0.3 0.1 0.3
v -0.3 0.1 0.1
v -0.3 0.1 -0.1
v -0.3 0.1 -0.3
v -0.3 0.1 -0.4
v -0.3 0.2 0
v -0.3 0.2 -0.1
v -0.3 0.3 0.2
v -0.3 0.3 0.1
v -0.3 0.3 0
v -0.3 0.3 -0.1
v -0.3 0.4 0.1
v -0.3 0.4 0
v -0.3 0.5 0.2
v -0.3 0.5 0.1
v -0.3 0.5 0
v -0.3 0.5 -0.1
v -0.3 0.9 0.2
v -0.3 0.9 0.1
v -0.3 0.9 -0.1
v -0.3 1.2 0.2
v -0.3 1.2 -0.1
v -0.2 0.9 0.3
v -0.2 0.9 0.2
v -0.2 0.9 -0.1
v -0.2 0.9 -0.2
v -0.2 1.1 -0.1
v -0.2 1.1 -0.2
v -0.2 1.2 0.3
v -0.2 1.2 0.2
v -0.2 1.2 -0.1
v -0.2 1.2 -0.2
v -0.2 1.3 0.2
v -0.2 1.3 -0.1
v -0.1 0.2 0.3
v -0.1 0.2 0.2
v -0.1 0.3 0.2
v -0.1 0.5 0.3
v -0.1 0.5 0.2
v -0.1 1 -0.2
v -0.1 1 -0.3
v -0.1 1.1 -0.2
v -0.1 1.1 -0.3
v 0.1 0.1 0.1
v 0.1 0.1 -0.1
v 0.1 0.2 0
v 0.1 0.2 -0.1
v 0.1 0.3 0.1
v 0.1 0.3 0
v -0.1 0.1 0.1
v -0.1 0.1 -0.1
v -0.1 0.2 0
v -0.1 0.2 -0.1
v -0.1 0.3 0.1
v -0.1 0.3 0
v 0.1 0.2 0.3
v 0.1 0.2 0.2
v 0.1 0.3 0.2
v 0.1 0.5 0.3
v 0.1 0.5 0.2
v 0.1 1 -0.2
v 0.1 1 -0.3
v 0.1 1.1 -0.2
v 0.1 1.1 -0.3
v 0.2 0.9 0.3
v 0.2 0.9 0.2
v 0.2 0.9 -0.1
v 0.2 0.9 -0.2
v 0.2 1.1 -0.1
v 0.2 1.1 -0.2
v 0.2 1.2 0.3
v 0.2 1.2 0.2
v 0.2 1.2 -0.1
v 0.2 1.2 -0.2
v 0.2 1.3 0.2
v 0.2 1.3 -0.1
v 0.3 0 0.4
v 0.3 0 0.3
v 0.3 0 -0.3
v 0.3 0 -0.4
v 0.3 0.1 0.4
v 0.3 0.1 0.3
v 0.3 0.1 0.1
v 0.3 0.1 -0.1
v 0.3 0.1 -0.3
v 0.3 0.1 -0.4
v 0.3 0.2 0
v 0.3 0.2 -0.1
v 0.3 0.3 0.2
v 0.3 0.3 0.1
v 0.3 0.3 0
v 0.3 0.3 -0.1
v 0.3 0.4 0.1
v 0.3 0.4 0
v 0.3 0.5 0.2
v 0.3 0.5 0.1
v 0.3 0.5 0
v 0.3 0.5 -0.1
v 0.3 0.9 0.2
v 0.3 0.9 0.1
v 0.3 0.9 -0.1
v 0.3 1.2 0.2
v 0.3 1.2 -0.1
v 0.4 0 0.3
v 0.4 0 -0.3
v 0.4 0.1 0.3
v 0.4 0.1 -0.3
v 0.4 0.4 0.1
v 0.4 0.4 0
v 0.4 0.5 0.2
v 0.4 0.5 0.1
v 0.4 0.5 0
v 0.4 0.5 -0.1
v 0.4 0.6 0.2
v 0.4 0.6 0.1
v 0.4 0.9 0.2
v 0.4 0.9 0.1
v 0.4 0.9 -0.1
v -0.3 0 0.4
v -0.3 0.1 0.4
v 0.3 0 0.4
v 0.3 0.1 0.4
v -0.4 0 0.3
v -0.4 0.1 0.3
v -0.3 0 0.3
v -0.3 0.1 0.3
v -0.2 0.9 0.3
v -0.2 1.2 0.3
v -0.1 0.2 0.3
v -0.1 0.5 0.3
v 0.1 0.2 0.3
v 0.1 0.5 0.3
v 0.2 0.9 0.3
v 0.2 1.2 0.3
v 0.3 0 0.3
v 0.3 0.1 0.3
v 0.4 0 0.3
v 0.4 0.1 0.3
v -0.4 0.5 0.2
v -0.4 0.6 0.2
v -0.4 0.9 0.2
v -0.3 0.3 0.2
v -0.3 0.5 0.2
v -0.3 0.6 0.2
v -0.3 0.9 0.2
v -0.3 1.2 0.2
v -0.2 0.9 0.2
v -0.2 1.2 0.2
v -0.2 1.3 0.2
v -0.1 0.3 0.2
v -0.1 0.5 0.2
v -0.1 0.8 0.2
v 0.1 0.3 0.2
v 0.1 0.5 0.2
v 0.1 0.8 0.2
v 0.2 0.9 0.2
v 0.2 1.2 0.2
v 0.2 1.3 0.2
v 0.3 0.3 0.2
v 0.3 0.5 0.2
v 0.3 0.6 0.2
v 0.3 0.9 0.2
v 0.3 1.2 0.2
v 0.4 0.5 0.2
v 0.4 0.6 0.2
v 0.4 0.9 0.2
v -0.4 0.4 0.1
v -0.4 0.5 0.1
v -0.3 0.1 0.1
v -0.3 0.3 0.1
v -0.3 0.4 0.1
v -0.3 0.5 0.1
v -0.1 0.1 0.1
v -0.1 0.3 0.1
v 0.1 0.1 0.1
v 0.1 0.3 0.1
v 0.3 0.1 0.1
v 0.3 0.3 0.1
v 0.3 0.4 0.1
v 0.3 0.5 0.1
v 0.4 0.4 0.1
v 0.4 0.5 0.1
v -0.1 0.2 0.2
v -0.1 0.3 0.2
v 0.1 0.2 0.2
v 0.1 0.3 0.2
v -0.4 0.4 0
v -0.4 0.5 0
v -0.3 0.2 0
v -0.3 0.3 0
v -0.3 0.4 0
v -0.3 0.5 0
v -0.1 0.2 0
v -0.1 0.3 0
v 0.1 0.2 0
v 0.1 0.3 0
v 0.3 0.2 0
v 0.3 0.3 0
v 0.3 0.4 0
v 0.3 0.5 0
v 0.4 0.4 0
v 0.4 0.5 0
v -0.4 0.5 -0.1
v -0.4 0.9 -0.1
v -0.3 0.1 -0.1
v -0.3 0.2 -0.1
v -0.3 0.3 -0.1
v -0.3 0.5 -0.1
v -0.3 0.9 -0.1
v -0.3 1.2 -0.1
v -0.2 0.5 -0.1
v -0.2 0.8 -0.1
v -0.2 0.9 -0.1
v -0.2 1.1 -0.1
v -0.2 1.2 -0.1
v -0.2 1.3 -0.1
v -0.1 0.1 -0.1
v -0.1 0.2 -0.1
v -0.1 0.4 -0.1
v -0.1 0.5 -0.1
v -0.1 1.2 -0.1
v 0.1 0.1 -0.1
v 0.1 0.2 -0.1
v 0.1 0.4 -0.1
v 0.1 0.5 -0.1
v 0.1 1.2 -0.1
v 0.2 0.5 -0.1
v 0.2 0.8 -0.1
v 0.2 0.9 -0.1
v 0.2 1.1 -0.1
v 0.2 1.2 -0.1
v 0.2 1.3 -0.1
v 0.3 0.1 -0.1
v 0.3 0.2 -0.1
v 0.3 0.3 -0.1
v 0.3 0.5 -0.1
v 0.3 0.9 -0.1
v 0.3 1.2 -0.1
v 0.4 0.5 -0.1
v 0.4 0.9 -0.1
v -0.2 0.9 -0.2
v -0.2 1.1 -0.2
v -0.2 1.2 -0.2
v -0.1 1 -0.2
v -0.1 1.1 -0.2
v -0.1 1.2 -0.2
v 0.1 1 -0.2
v 0.1 1.1 -0.2
v 0.1 1.2 -0.2
v 0.2 0.9 -0.2
v 0.2 1.1 -0.2
v 0.2 1.2 -0.2
v -0.4 0 -0.3
v -0.4 0.1 -0.3
v -0.3 0 -0.3
v -0.3 0.1 -0.3
v -0.1 1 -0.3
v -0.1 1.1 -0.3
v 0.1 1 -0.3
v 0.1 1.1 -0.3
v 0.3 0 -0.3
v 0.3 0.1 -0.3
v 0.4 0 -0.3
v 0.4 0.1 -0.3
v -0.3 0 -0.4
v -0.3 0.1 -0.4
v 0.3 0 -0.4
v 0.3 0.1 -0.4
v -0.3 0 0.4
v 0.3 0 0.4
v -0.4 0 0.3
v -0.3 0 0.3
v 0.3 0 0.3
v 0.4 0 0.3
v -0.4 0 -0.3
v -0.3 0 -0.3
v 0.3 0 -0.3
v 0.4 0 -0.3
v -0.3 0 -0.4
v 0.3 0 -0.4
v -0.1 0.2 0.3
v 0.1 0.2 0.3
v -0.1 0.2 0.2
v 0.1 0.2 0.2
v -0.3 0.3 0.2
v -0.1 0.3 0.2
v 0.1 0.3 0.2
v 0.3 0.3 0.2
v -0.3 0.3 0.1
v -0.1 0.3 0.1
v 0.1 0.3 0.1
v 0.3 0.3 0.1
v -0.3 0.3 0
v -0.1 0.3 0
v 0.1 0.3 0
v 0.3 0.3 0
v -0.3 0.3 -0.1
v 0.3 0.3 -0.1
v -0.4 0.4 0.1
v -0.3 0.4 0.1
v 0.3 0.4 0.1
v 0.4 0.4 0.1
v -0.4 0.4 0
v -0.3 0.4 0
v 0.3 0.4 0
v 0.4 0.4 0
v -0.4 0.5 0.2
v -0.3 0.5 0.2
v 0.3 0.5 0.2
v 0.4 0.5 0.2
v -0.4 0.5 0.1
v -0.3 0.5 0.1
v 0.3 0.5 0.1
v 0.4 0.5 0.1
v -0.4 0.5 0
v -0.3 0.5 0
v 0.3 0.5 0
v 0.4 0.5 0
v -0.4 0.5 -0.1
v -0.3 0.5 -0.1
v 0.3 0.5 -0.1
v 0.4 0.5 -0.1
v -0.2 0.9 0.3
v 0.2 0.9 0.3
v -0.2 0.9 0.2
v 0.2 0.9 0.2
v -0.2 0.9 -0.1
v 0.2 0.9 -0.1
v -0.2 0.9 -0.2
v 0.2 0.9 -0.2
v -0.1 1 -0.2
v 0.1 1 -0.2
v -0.1 1 -0.3
v 0.1 1 -0.3
v -0.3 0.1 0.4
v 0.3 0.1 0.4
v -0.4 0.1 0.3
v -0.3 0.1 0.3
v 0.3 0.1 0.3
v 0.4 0.1 0.3
v -0.3 0.1 0.1
v -0.1 0.1 0.1
v 0.1 0.1 0.1
v 0.3 0.1 0.1
v -0.3 0.1 -0.1
v -0.1 0.1 -0.1
v 0.1 0.1 -0.1
v 0.3 0.1 -0.1
v -0.4 0.1 -0.3
v -0.3 0.1 -0.3
v 0.3 0.1 -0.3
v 0.4 0.1 -0.3
v -0.3 0.1 -0.4
v 0.3 0.1 -0.4
v -0.3 0.2 0
v -0.1 0.2 0
v 0.1 0.2 0
v 0.3 0.2 0
v -0.3 0.2 -0.1
v -0.1 0.2 -0.1
v 0.1 0.2 -0.1
v 0.3 0.2 -0.1
v -0.1 0.5 0.3
v 0.1 0.5 0.3
v -0.1 0.5 0.2
v 0.1 0.5 0.2
v -0.4 0.9 0.2
v -0.3 0.9 0.2
v 0.3 0.9 0.2
v 0.4 0.9 0.2
v -0.4 0.9 0.1
v -0.3 0.9 0.1
v 0.3 0.9 0.1
v 0.4 0.9 0.1
v -0.4 0.9 -0.1
v -0.3 0.9 -0.1
v 0.3 0.9 -0.1
v 0.4 0.9 -0.1
v -0.1 1.1 -0.2
v 0.1 1.1 -0.2
v -0.1 1.1 -0.3
v 0.1 1.1 -0.3
v -0.2 1.2 0.3
v 0.2 1.2 0.3
v -0.3 1.2 0.2
v -0.2 1.2 0.2
v 0.2 1.2 0.2
v 0.3 1.2 0.2
v -0.3 1.2 -0.1
v -0.2 1.2 -0.1
v -0.1 1.2 -0.1
v 0.1 1.2 -0.1
v 0.2 1.2 -0.1
v 0.3 1.2 -0.1
v -0.2 1.2 -0.2
v -0.1 1.2 -0.2
v 0.1 1.2 -0.2
v 0.2 1.2 -0.2
v -0.2 1.3 0.2
v 0.2 1.3 0.2
v -0.2 1.3 -0.1
v 0.2 1.3 -0.1

# faces
f 3/2/1 2/2/1 1/2/1
f 4/2/1 2/2/1 3/2/1
f 8/4/1 6/4/1 5/4/1
f 9/4/1 6/4/1 8/4/1
f 11/4/1 8/4/1 7/4/1
f 11/4/1 10/4/1 9/4/1
f 11/4/1 9/4/1 8/4/1
f 12/4/1 10/4/1 11/4/1
f 13/2/1 12/2/1 11/2/1
f 14/4/1 10/4/1 12/4/1
f 14/2/1 12/2/1 13/2/1
f 15/4/1 10/4/1 14/4/1
f 20/2/1 17/2/1 16/2/1
f 21/2/1 17/2/1 20/2/1
f 24/2/1 19/2/1 18/2/1
f 25/2/1 19/2/1 24/2/1
f 26/4/1 23/4/1 22/4/1
f 27/4/1 23/4/1 26/4/1
f 29/4/1 26/4/1 22/4/1
f 30/4/1 26/4/1 29/4/1
f 32/4/1 29/4/1 28/4/1
f 32/4/1 31/4/1 30/4/1
f 32/4/1 30/4/1 29/4/1
f 33/4/1 31/4/1 32/4/1
f 34/4/1 32/4/1 28/4/1
f 35/4/1 32/4/1 34/4/1
f 36/4/1 31/4/1 33/4/1
f 37/4/1 31/4/1 36/4/1
f 41/4/1 39/4/1 38/4/1
f 41/4/1 40/4/1 39/4/1
f 42/4/1 40/4/1 41/4/1
f 47/4/1 46/4/1 45/4/1
f 48/4/1 46/4/1 47/4/1
f 49/4/1 44/4/1 43/4/1
f 50/4/1 44/4/1 49/4/1
f 51/2/1 48/2/1 47/2/1
f 52/2/1 48/2/1 51/2/1
f 53/4/1 51/4/1 50/4/1
f 54/4/1 51/4/1 53/4/1
f 57/3/1 56/3/1 55/3/1
f 58/3/1 57/3/1 55/3/1
f 59/3/1 57/3/1 58/3/1
f 62/1/1 61/1/1 60/1/1
f 63/1/1 61/1/1 62/1/1
f 66/4/1 65/4/1 64/4/1
f 67/4/1 65/4/1 66/4/1
f 68/4/1 66/4/1 64/4/1
f 69/4/1 66/4/1 68/4/1
f 70/4/2 71/4/2 72/4/2
f 72/4/2 71/4/2 73/4/2
f 70/4/2 72/4/2 74/4/2
f 74/4/2 72/4/2 75/4/2
f 76/3/2 77/3/2 78/3/2
f 76/3/2 78/3/2 79/3/2
f 79/3/2 78/3/2 80/3/2
f 81/1/2 82/1/2 83/1/2
f 83/1/2 82/1/2 84/1/2
f 87/4/2 88/4/2 89/4/2
f 89/4/2 88/4/2 90/4/2
f 85/4/2 86/4/2 91/4/2
f 91/4/2 86/4/2 92/4/2
f 89/2/2 90/2/2 93/2/2
f 93/2/2 90/2/2 94/2/2
f 92/4/2 93/4/2 95/4/2
f 95/4/2 93/4/2 96/4/2
f 97/2/2 98/2/2 101/2/2
f 101/2/2 98/2/2 102/2/2
f 99/2/2 100/2/2 105/2/2
f 105/2/2 100/2/2 106/2/2
f 103/4/2 104/4/2 107/4/2
f 107/4/2 104/4/2 108/4/2
f 103/4/2 107/4/2 110/4/2
f 110/4/2 107/4/2 111/4/2
f 109/4/2 110/4/2 113/4/2
f 111/4/2 112/4/2 113/4/2
f 110/4/2 111/4/2 113/4/2
f 113/4/2 112/4/2 114/4/2
f 109/4/2 113/4/2 115/4/2
f 115/4/2 113/4/2 116/4/2
f 114/4/2 112/4/2 117/4/2
f 117/4/2 112/4/2 118/4/2
f 119/4/2 120/4/2 122/4/2
f 120/4/2 121/4/2 122/4/2
f 122/4/2 121/4/2 123/4/2
f 124/2/2 125/2/2 126/2/2
f 126/2/2 125/2/2 127/2/2
f 128/4/2 129/4/2 131/4/2
f 131/4/2 129/4/2 132/4/2
f 130/4/2 131/4/2 134/4/2
f 132/4/2 133/4/2 134/4/2
f 131/4/2 132/4/2 134/4/2
f 134/4/2 133/4/2 135/4/2
f 134/2/2 135/2/2 136/2/2
f 135/4/2 133/4/2 137/4/2
f 136/2/2 135/2/2 137/2/2
f 137/4/2 133/4/2 138/4/2
f 141/2/3 140/2/3 139/2/3
f 142/2/3 140/2/3 141/2/3
f 145/2/3 144/2/3 143/2/3
f 146/2/3 144/2/3 145/2/3
f 151/3/3 150/3/3 149/3/3
f 152/3/3 150/3/3 151/3/3
f 153/4/3 148/4/3 147/4/3
f 154/4/3 148/4/3 153/4/3
f 157/2/3 156/2/3 155/2/3
f 158/2/3 156/2/3 157/2/3
f 163/4/3 160/4/3 159/4/3
f 164/2/3 161/2/3 160/2/3
f 164/4/3 160/4/3 163/4/3
f 165/2/3 161/2/3 164/2/3
f 167/4/3 163/4/3 162/4/3
f 167/4/3 166/4/3 165/4/3
f 167/4/3 165/4/3 164/4/3
f 167/4/3 164/4/3 163/4/3
f 168/4/3 166/4/3 167/4/3
f 170/4/3 167/4/3 162/4/3
f 171/4/3 167/4/3 170/4/3
f 172/4/3 167/4/3 171/4/3
f 174/3/3 172/3/3 171/3/3
f 175/4/3 167/4/3 172/4/3
f 175/3/3 172/3/3 174/3/3
f 176/4/3 174/4/3 173/4/3
f 176/4/3 167/4/3 175/4/3
f 176/4/3 175/4/3 174/4/3
f 177/4/3 169/4/3 168/4/3
f 178/4/3 169/4/3 177/4/3
f 179/4/3 176/4/3 173/4/3
f 179/4/3 177/4/3 176/4/3
f 180/4/3 177/4/3 179/4/3
f 181/4/3 177/4/3 180/4/3
f 182/4/3 177/4/3 181/4/3
f 183/4/3 177/4/3 182/4/3
f 184/4/3 181/4/3 180/4/3
f 185/2/3 182/2/3 181/2/3
f 185/4/3 181/4/3 184/4/3
f 186/2/3 182/2/3 185/2/3
f 191/4/3 188/4/3 187/4/3
f 192/4/3 188/4/3 191/4/3
f 193/4/3 190/4/3 189/4/3
f 194/4/3 190/4/3 193/4/3
f 197/4/3 196/4/3 195/4/3
f 198/4/3 196/4/3 197/4/3
f 201/4/3 200/4/3 199/4/3
f 202/4/3 200/4/3 201/4/3
f 203/3/4 204/3/4 205/3/4
f 205/3/4 204/3/4 206/3/4
f 207/4/4 208/4/4 211/4/4
f 211/4/4 208/4/4 212/4/4
f 209/4/4 210/4/4 213/4/4
f 213/4/4 210/4/4 214/4/4
f 215/4/4 216/4/4 217/4/4
f 217/4/4 216/4/4 218/4/4
f 219/4/4 220/4/4 221/4/4
f 221/4/4 220/4/4 222/4/4
f 223/4/4 224/4/4 228/4/4
f 228/4/4 224/4/4 229/4/4
f 227/4/4 228/4/4 231/4/4
f 229/4/4 230/4/4 231/4/4
f 228/4/4 229/4/4 231/4/4
f 231/4/4 230/4/4 232/4/4
f 232/4/4 230/4/4 233/4/4
f 233/4/4 230/4/4 234/4/4
f 234/4/4 230/4/4 235/4/4
f 225/4/4 226/4/4 237/4/4
f 237/4/4 226/4/4 238/4/4
f 227/4/4 231/4/4 239/4/4
f 231/2/4 232/2/4 240/2/4
f 239/4/4 231/4/4 240/4/4
f 235/4/4 236/4/4 241/4/4
f 227/4/4 239/4/4 244/4/4
f 239/2/4 240/2/4 244/2/4
f 240/2/4 232/2/4 245/2/4
f 244/2/4 240/2/4 245/2/4
f 241/4/4 236/4/4 246/4/4
f 245/2/4 232/2/4 247/2/4
f 244/4/4 245/4/4 247/4/4
f 232/4/4 233/4/4 248/4/4
f 247/2/4 232/2/4 248/2/4
f 248/4/4 233/4/4 249/4/4
f 246/4/4 236/4/4 251/4/4
f 251/4/4 236/4/4 252/4/4
f 242/4/4 243/4/4 253/4/4
f 253/4/4 243/4/4 254/4/4
f 227/4/4 244/4/4 255/4/4
f 249/4/4 250/4/4 255/4/4
f 244/4/4 247/4/4 255/4/4
f 250/4/4 251/4/4 255/4/4
f 247/4/4 248/4/4 255/4/4
f 248/4/4 249/4/4 255/4/4
f 255/4/4 251/4/4 256/4/4
f 256/4/4 251/4/4 257/4/4
f 257/4/4 251/4/4 258/4/4
f 256/4/4 257/4/4 259/4/4
f 259/4/4 257/4/4 260/4/4
f 261/4/4 262/4/4 264/4/4
f 262/2/4 263/2/4 265/2/4
f 264/4/4 262/4/4 265/4/4
f 265/2/4 263/2/4 266/2/4
f 261/4/4 264/4/4 267/4/4
f 265/4/4 266/4/4 268/4/4
f 268/4/4 266/4/4 269/4/4
f 261/4/4 267/4/4 270/4/4
f 267/4/4 268/4/4 270/4/4
f 268/2/4 269/2/4 271/2/4
f 270/4/4 268/4/4 271/4/4
f 271/2/4 269/2/4 272/2/4
f 273/2/4 274/2/4 275/2/4
f 275/2/4 274/2/4 276/2/4
f 277/1/4 278/1/4 279/1/4
f 279/1/4 278/1/4 280/1/4
f 281/2/4 282/2/4 283/2/4
f 283/2/4 282/2/4 284/2/4
f 285/2/4 286/2/4 287/2/4
f 287/2/4 286/2/4 288/2/4
f 292/2/5 290/2/5 289/2/5
f 293/2/5 290/2/5 292/2/5
f 295/2/5 292/2/5 291/2/5
f 295/2/5 294/2/5 293/2/5
f 295/2/5 293/2/5 292/2/5
f 296/2/5 294/2/5 295/2/5
f 297/2/5 294/2/5 296/2/5
f 298/2/5 294/2/5 297/2/5
f 299/2/5 297/2/5 296/2/5
f 300/2/5 297/2/5 299/2/5
f 303/3/5 302/3/5 301/3/5
f 304/3/5 302/3/5 303/3/5
f 309/4/5 306/4/5 305/4/5
f 309/4/5 308/4/5 307/4/5
f 309/4/5 307/4/5 306/4/5
f 310/4/5 308/4/5 309/4/5
f 311/4/5 308/4/5 310/4/5
f 312/4/5 308/4/5 311/4/5
f 314/4/5 311/4/5 310/4/5
f 315/4/5 311/4/5 314/4/5
f 317/4/5 314/4/5 313/4/5
f 317/4/5 316/4/5 315/4/5
f 317/4/5 315/4/5 314/4/5
f 318/4/5 316/4/5 317/4/5
f 323/4/5 320/4/5 319/4/5
f 324/4/5 320/4/5 323/4/5
f 325/4/5 322/4/5 321/4/5
f 326/4/5 322/4/5 325/4/5
f 331/4/5 328/4/5 327/4/5
f 332/4/5 328/4/5 331/4/5
f 333/4/5 330/4/5 329/4/5
f 334/4/5 330/4/5 333/4/5
f 339/4/5 336/4/5 335/4/5
f 340/4/5 336/4/5 339/4/5
f 341/4/5 338/4/5 337/4/5
f 342/4/5 338/4/5 341/4/5
f 345/4/5 344/4/5 343/4/5
f 346/4/5 344/4/5 345/4/5
f 349/4/5 348/4/5 347/4/5
f 350/4/5 348/4/5 349/4/5
f 353/1/5 352/1/5 351/1/5
f 354/1/5 352/1/5 353/1/5
f 355/2/6 356/2/6 358/2/6
f 358/2/6 356/2/6 359/2/6
f 357/2/6 358/2/6 361/2/6
f 359/2/6 360/2/6 361/2/6
f 358/2/6 359/2/6 361/2/6
f 361/2/6 360/2/6 362/2/6
f 362/2/6 360/2/6 363/2/6
f 363/2/6 360/2/6 364/2/6
f 357/2/6 361/2/6 365/2/6
f 362/2/6 363/2/6 366/2/6
f 366/2/6 363/2/6 367/2/6
f 364/2/6 360/2/6 368/2/6
f 366/2/6 367/2/6 369/2/6
f 367/2/6 368/2/6 369/2/6
f 357/2/6 365/2/6 369/2/6
f 365/2/6 366/2/6 369/2/6
f 369/2/6 368/2/6 370/2/6
f 368/2/6 360/2/6 371/2/6
f 370/2/6 368/2/6 371/2/6
f 371/2/6 360/2/6 372/2/6
f 370/2/6 371/2/6 373/2/6
f 373/2/6 371/2/6 374/2/6
f 375/4/6 376/4/6 379/4/6
f 379/4/6 376/4/6 380/4/6
f 377/4/6 378/4/6 381/4/6
f 381/4/6 378/4/6 382/4/6
f 383/3/6 384/3/6 385/3/6
f 385/3/6 384/3/6 386/3/6
f 387/2/6 388/2/6 391/2/6
f 391/2/6 388/2/6 392/2/6
f 389/2/6 390/2/6 393/2/6
f 393/2/6 390/2/6 394/2/6
f 391/4/6 392/4/6 395/4/6
f 395/4/6 392/4/6 396/4/6
f 393/4/6 394/4/6 397/4/6
f 397/4/6 394/4/6 398/4/6
f 399/1/6 400/1/6 401/1/6
f 401/1/6 400/1/6 402/1/6
f 403/4/6 404/4/6 406/4/6
f 406/4/6 404/4/6 407/4/6
f 405/4/6 406/4/6 409/4/6
f 409/4/6 406/4/6 410/4/6
f 407/4/6 408/4/6 413/4/6
f 413/4/6 408/4/6 414/4/6
f 410/2/6 411/2/6 415/2/6
f 411/4/6 412/4/6 416/4/6
f 415/2/6 411/2/6 416/2/6
f 412/2/6 413/2/6 417/2/6
f 416/4/6 412/4/6 417/4/6
f 417/2/6 413/2/6 418/2/6
f 419/4/6 420/4/6 421/4/6
f 421/4/6 420/4/6 422/4/6
